{
  "accessors": [
    {
      "bufferView": 2,
      "componentType": 5126,
      "count": 1246,
      "max": [
        5.3436975479125977,
        0.35396996140480042,
        1.2270222902297974
      ],
      "min": [
        -1.4149502515792847,
        -0.58912336826324463,
        -1.2270222902297974
      ],
      "type": "VEC3"
    },
    {
      "bufferView": 2,
      "byteOffset": 14952,
      "componentType": 5126,
      "count": 1246,
      "max": [
        0.99970591068267822,
        1,
        1
      ],
      "min": [
        -0.86403745412826538,
        -1,
        -1
      ],
      "type": "VEC3"
    },
    {
      "bufferView": 1,
      "componentType": 5126,
      "count": 1246,
      "max": [
        1,
        0.5
      ],
      "min": [
        0,
        0
      ],
      "type": "VEC2"
    },
    {
      "bufferView": 0,
      "componentType": 5125,
      "count": 2208,
      "max": [
        1245
      ],
      "min": [
        0
      ],
      "type": "SCALAR"
    },
    {
      "bufferView": 2,
      "byteOffset": 29904,
      "componentType": 5126,
      "count": 982,
      "max": [
        5.4264707565307617,
        0.35111105442047119,
        1.3306323289871216
      ],
      "min": [
        -1.4149502515792847,
        -0.58912336826324463,
        -1.3306323289871216
      ],
      "type": "VEC3"
    },
    {
      "bufferView": 2,
      "byteOffset": 41688,
      "componentType": 5126,
      "count": 982,
      "max": [
        0.769245445728302,
        1,
        1
      ],
      "min": [
        -0.8530203104019165,
        -1,
        -1
      ],
      "type": "VEC3"
    },
    {
      "bufferView": 1,
      "byteOffset": 9968,
      "componentType": 5126,
      "count": 982,
      "max": [
        1,
        0.5
      ],
      "min": [
        0,
        -1.2665085705521051e-05
      ],
      "type": "VEC2"
    },
    {
      "bufferView": 0,
      "byteOffset": 8832,
      "componentType": 5125,
      "count": 1710,
      "max": [
        981
      ],
      "min": [
        0
      ],
      "type": "SCALAR"
    },
    {
      "bufferView": 2,
      "byteOffset": 53472,
      "componentType": 5126,
      "count": 33,
      "max": [
        -0.77599316835403442,
        -0.018403232097625732,
        0.92850255966186523
      ],
      "min": [
        -1.2915147542953491,
        -0.16419720649719238,
        -0.92850255966186523
      ],
      "type": "VEC3"
    },
    {
      "bufferView": 2,
      "byteOffset": 53868,
      "componentType": 5126,
      "count": 33,
      "max": [
        -0.41262602806091309,
        0.89423292875289917,
        0.1734573096036911
      ],
      "min": [
        -0.41262638568878174,
        0.89423274993896484,
        -0.17345708608627319
      ],
      "type": "VEC3"
    },
    {
      "bufferView": 1,
      "byteOffset": 17824,
      "componentType": 5126,
      "count": 33,
      "max": [
        0.24570697546005249,
        0.15632118284702301
      ],
      "min": [
        0.01732378825545311,
        0.028240388259291649
      ],
      "type": "VEC2"
    },
    {
      "bufferView": 0,
      "byteOffset": 15672,
      "componentType": 5125,
      "count": 87,
      "max": [
        32
      ],
      "min": [
        0
      ],
      "type": "SCALAR"
    },
    {
      "bufferView": 2,
      "byteOffset": 54264,
      "componentType": 5126,
      "count": 136,
      "max": [
        3.3789923191070557,
        -0.035565238445997238,
        0.89832520484924316
      ],
      "min": [
        -1.2074941396713257,
        -0.58912336826324463,
        -0.89832520484924316
      ],
      "type": "VEC3"
    },
    {
      "bufferView": 2,
      "byteOffset": 55896,
      "componentType": 5126,
      "count": 136,
      "max": [
        1.0182275218539871e-05,
        0.84822708368301392,
        0.58189171552658081
      ],
      "min": [
        -0.25250592827796936,
        -1,
        -0.58189171552658081
      ],
      "type": "VEC3"
    },
    {
      "bufferView": 1,
      "byteOffset": 18088,
      "componentType": 5126,
      "count": 136,
      "max": [
        0.20306013524532318,
        0.27135851979255676
      ],
      "min": [
        0,
        0.046716876327991486
      ],
      "type": "VEC2"
    },
    {
      "bufferView": 0,
      "byteOffset": 16020,
      "componentType": 5125,
      "count": 204,
      "max": [
        135
      ],
      "min": [
        0
      ],
      "type": "SCALAR"
    },
    {
      "bufferView": 2,
      "byteOffset": 57528,
      "componentType": 5126,
      "count": 98,
      "max": [
        4.6915135383605957,
        0.25335106253623962,
        1.1072510480880737
      ],
      "min": [
        1.0657927989959717,
        -0.55951875448226929,
        -1.1072510480880737
      ],
      "type": "VEC3"
    },
    {
      "bufferView": 2,
      "byteOffset": 58704,
      "componentType": 5126,
      "count": 98,
      "max": [
        0.42473515868186951,
        0.99918657541275024,
        1
      ],
      "min": [
        -0.6109805703163147,
        -0.98491024971008301,
        -1
      ],
      "type": "VEC3"
    },
    {
      "bufferView": 1,
      "byteOffset": 19176,
      "componentType": 5126,
      "count": 98,
      "max": [
        1.0000001192092896,
        0.5
      ],
      "min": [
        0,
        0
      ],
      "type": "VEC2"
    },
    {
      "bufferView": 0,
      "byteOffset": 16836,
      "componentType": 5125,
      "count": 156,
      "max": [
        97
      ],
      "min": [
        0
      ],
      "type": "SCALAR"
    },
    {
      "bufferView": 2,
      "byteOffset": 59880,
      "componentType": 5126,
      "count": 150,
      "max": [
        4.6915135383605957,
        0.28376343846321106,
        1.1072509288787842
      ],
      "min": [
        1.0657929182052612,
        -0.55951875448226929,
        -1.1072509288787842
      ],
      "type": "VEC3"
    },
    {
      "bufferView": 2,
      "byteOffset": 61680,
      "componentType": 5126,
      "count": 150,
      "max": [
        0.99920624494552612,
        0.9995313286781311,
        1
      ],
      "min": [
        -0.27989193797111511,
        0,
        -0.90589356422424316
      ],
      "type": "VEC3"
    },
    {
      "bufferView": 1,
      "byteOffset": 19960,
      "componentType": 5126,
      "count": 150,
      "max": [
        1.0000001192092896,
        0.5
      ],
      "min": [
        0,
        0
      ],
      "type": "VEC2"
    },
    {
      "bufferView": 0,
      "byteOffset": 17460,
      "componentType": 5125,
      "count": 264,
      "max": [
        149
      ],
      "min": [
        0
      ],
      "type": "SCALAR"
    },
    {
      "bufferView": 2,
      "byteOffset": 63480,
      "componentType": 5126,
      "count": 16,
      "max": [
        1.2068350315093994,
        -0.035535544157028198,
        1.0946425199508667
      ],
      "min": [
        1.2042664289474487,
        -0.55755901336669922,
        -1.0946425199508667
      ],
      "type": "VEC3"
    },
    {
      "bufferView": 2,
      "byteOffset": 63672,
      "componentType": 5126,
      "count": 16,
      "max": [
        0.60345762968063354,
        0.92272573709487915,
        0.7973867654800415
      ],
      "min": [
        -0.38545745611190796,
        0.003648008219897747,
        -0.7973867654800415
      ],
      "type": "VEC3"
    },
    {
      "bufferView": 1,
      "byteOffset": 21160,
      "componentType": 5126,
      "count": 16,
      "max": [
        1,
        0.5
      ],
      "min": [
        1,
        0
      ],
      "type": "VEC2"
    },
    {
      "bufferView": 0,
      "byteOffset": 18516,
      "componentType": 5125,
      "count": 24,
      "max": [
        15
      ],
      "min": [
        0
      ],
      "type": "SCALAR"
    },
    {
      "bufferView": 2,
      "byteOffset": 63864,
      "componentType": 5126,
      "count": 226,
      "max": [
        2.4831230640411377,
        0.46852222084999084,
        1.0943324565887451
      ],
      "min": [
        -0.27330866456031799,
        -0.19562344253063202,
        -1.0943324565887451
      ],
      "type": "VEC3"
    },
    {
      "bufferView": 2,
      "byteOffset": 66576,
      "componentType": 5126,
      "count": 226,
      "max": [
        0.99936157464981079,
        1,
        1
      ],
      "min": [
        -0.87012779712677002,
        -1,
        -1
      ],
      "type": "VEC3"
    },
    {
      "bufferView": 1,
      "byteOffset": 21288,
      "componentType": 5126,
      "count": 226,
      "max": [
        1.0000001192092896,
        0.5
      ],
      "min": [
        1,
        0
      ],
      "type": "VEC2"
    },
    {
      "bufferView": 0,
      "byteOffset": 18612,
      "componentType": 5125,
      "count": 348,
      "max": [
        225
      ],
      "min": [
        0
      ],
      "type": "SCALAR"
    },
    {
      "bufferView": 2,
      "byteOffset": 69288,
      "componentType": 5126,
      "count": 6,
      "max": [
        0.97438299655914307,
        0.11355658620595932,
        0.61797857284545898
      ],
      "min": [
        0.57344293594360352,
        -0.05720045417547226,
        -0.61797857284545898
      ],
      "type": "VEC3"
    },
    {
      "bufferView": 2,
      "byteOffset": 69360,
      "componentType": 5126,
      "count": 6,
      "max": [
        0.39183545112609863,
        -0.92003542184829712,
        -0
      ],
      "min": [
        0.39183545112609863,
        -0.92003542184829712,
        -0
      ],
      "type": "VEC3"
    },
    {
      "bufferView": 1,
      "byteOffset": 23096,
      "componentType": 5126,
      "count": 6,
      "max": [
        1,
        0.5
      ],
      "min": [
        1,
        0.21764586865901947
      ],
      "type": "VEC2"
    },
    {
      "bufferView": 0,
      "byteOffset": 20004,
      "componentType": 5125,
      "count": 12,
      "max": [
        5
      ],
      "min": [
        0
      ],
      "type": "SCALAR"
    },
    {
      "bufferView": 2,
      "byteOffset": 69432,
      "componentType": 5126,
      "count": 336,
      "max": [
        5.1949586868286133,
        0.15585458278656006,
        0.8432430624961853
      ],
      "min": [
        4.9727272987365723,
        -0.081963241100311279,
        -0.8432430624961853
      ],
      "type": "VEC3"
    },
    {
      "bufferView": 2,
      "byteOffset": 73464,
      "componentType": 5126,
      "count": 336,
      "max": [
        0.99999547004699707,
        0.99994957447052002,
        1
      ],
      "min": [
        -0.97381222248077393,
        -0.99996131658554077,
        -1
      ],
      "type": "VEC3"
    },
    {
      "bufferView": 1,
      "byteOffset": 23144,
      "componentType": 5126,
      "count": 336,
      "max": [
        0.10236270725727081,
        0.27253538370132446
      ],
      "min": [
        0,
        0.23044320940971375
      ],
      "type": "VEC2"
    },
    {
      "bufferView": 0,
      "byteOffset": 20052,
      "componentType": 5125,
      "count": 504,
      "max": [
        335
      ],
      "min": [
        0
      ],
      "type": "SCALAR"
    },
    {
      "bufferView": 2,
      "byteOffset": 77496,
      "componentType": 5126,
      "count": 232,
      "max": [
        1.4194172620773315,
        -0.046235792338848114,
        1.244143009185791
      ],
      "min": [
        1.260859489440918,
        -0.12687909603118896,
        -1.244143009185791
      ],
      "type": "VEC3"
    },
    {
      "bufferView": 2,
      "byteOffset": 80280,
      "componentType": 5126,
      "count": 232,
      "max": [
        0.97478765249252319,
        1,
        0.90373378992080688
      ],
      "min": [
        -0.47207352519035339,
        -1,
        -0.90373378992080688
      ],
      "type": "VEC3"
    },
    {
      "bufferView": 1,
      "byteOffset": 25832,
      "componentType": 5126,
      "count": 232,
      "max": [
        0.875,
        0.75000005960464478
      ],
      "min": [
        0.12499998509883881,
        0.25
      ],
      "type": "VEC2"
    },
    {
      "bufferView": 0,
      "byteOffset": 22068,
      "componentType": 5125,
      "count": 348,
      "max": [
        231
      ],
      "min": [
        0
      ],
      "type": "SCALAR"
    },
    {
      "bufferView": 2,
      "byteOffset": 83064,
      "componentType": 5126,
      "count": 56,
      "max": [
        1.4194172620773315,
        -0.046235792338848114,
        1.244143009185791
      ],
      "min": [
        1.260859489440918,
        -0.12687909603118896,
        -1.244143009185791
      ],
      "type": "VEC3"
    },
    {
      "bufferView": 2,
      "byteOffset": 83736,
      "componentType": 5126,
      "count": 56,
      "max": [
        -0.35340377688407898,
        0.084467560052871704,
        0.93547093868255615
      ],
      "min": [
        -0.94802916049957275,
        -0.05002409964799881,
        -0.93547093868255615
      ],
      "type": "VEC3"
    },
    {
      "bufferView": 1,
      "byteOffset": 27688,
      "componentType": 5126,
      "count": 56,
      "max": [
        0.625,
        1
      ],
      "min": [
        0.375,
        0
      ],
      "type": "VEC2"
    },
    {
      "bufferView": 0,
      "byteOffset": 23460,
      "componentType": 5125,
      "count": 84,
      "max": [
        55
      ],
      "min": [
        0
      ],
      "type": "SCALAR"
    }
  ],
  "asset": {
    "extras": {
      "author": "Raghavprasanna (https://sketchfab.com/Raghavprasanna)",
      "license": "CC-BY-4.0 (http://creativecommons.org/licenses/by/4.0/)",
      "source": "https://sketchfab.com/3d-models/blnk-100-concept-hovering-car-2a61db68f0b14185ba690d2e22dd037c",
      "title": "blnk-100 concept hovering car"
    },
    "generator": "Sketchfab-8.57.0",
    "version": "2.0"
  },
  "bufferViews": [
    {
      "buffer": 0,
      "byteLength": 23796,
      "byteOffset": 0,
      "name": "floatBufferViews",
      "target": 34963
    },
    {
      "buffer": 0,
      "byteLength": 28136,
      "byteOffset": 23796,
      "byteStride": 8,
      "name": "floatBufferViews",
      "target": 34962
    },
    {
      "buffer": 0,
      "byteLength": 84408,
      "byteOffset": 51932,
      "byteStride": 12,
      "name": "floatBufferViews",
      "target": 34962
    }
  ],
  "buffers": [
    {
      "byteLength": 136340,
      "uri": "scene.bin"
    }
  ],
  "materials": [
    {
      "doubleSided": true,
      "emissiveFactor": [
        0,
        0,
        0
      ],
      "name": "Material",
      "pbrMetallicRoughness": {
        "baseColorFactor": [
          0.6291131388777057,
          0.084072903875345051,
          0.84827124858243041,
          1
        ],
        "metallicFactor": 1,
        "roughnessFactor": 0.224771
      }
    },
    {
      "doubleSided": true,
      "emissiveFactor": [
        0,
        0,
        0
      ],
      "name": "Material.001",
      "pbrMetallicRoughness": {
        "baseColorFactor": [
          0.349327,
          0.349327,
          0.349327,
          1
        ],
        "metallicFactor": 1,
        "roughnessFactor": 0.074501411300000001
      }
    },
    {
      "doubleSided": true,
      "emissiveFactor": [
        1,
        0.59602764115503004,
        0
      ],
      "name": "Material.002",
      "pbrMetallicRoughness": {
        "baseColorFactor": [
          0,
          0,
          0,
          1
        ],
        "metallicFactor": 1,
        "roughnessFactor": 1
      }
    },
    {
      "doubleSided": true,
      "emissiveFactor": [
        1,
        1,
        1
      ],
      "name": "Material.003",
      "pbrMetallicRoughness": {
        "baseColorFactor": [
          0,
          0,
          0,
          1
        ],
        "metallicFactor": 0,
        "roughnessFactor": 1
      }
    }
  ],
  "meshes": [
    {
      "primitives": [
        {
          "attributes": {
            "NORMAL": 1,
            "POSITION": 0,
            "TEXCOORD_0": 2
          },
          "indices": 3,
          "material": 0,
          "mode": 4
        }
      ]
    },
    {
      "primitives": [
        {
          "attributes": {
            "NORMAL": 5,
            "POSITION": 4,
            "TEXCOORD_0": 6
          },
          "indices": 7,
          "material": 1,
          "mode": 4
        }
      ]
    },
    {
      "primitives": [
        {
          "attributes": {
            "NORMAL": 9,
            "POSITION": 8,
            "TEXCOORD_0": 10
          },
          "indices": 11,
          "material": 2,
          "mode": 4
        }
      ]
    },
    {
      "primitives": [
        {
          "attributes": {
            "NORMAL": 13,
            "POSITION": 12,
            "TEXCOORD_0": 14
          },
          "indices": 15,
          "material": 3,
          "mode": 4
        }
      ]
    },
    {
      "primitives": [
        {
          "attributes": {
            "NORMAL": 17,
            "POSITION": 16,
            "TEXCOORD_0": 18
          },
          "indices": 19,
          "material": 1,
          "mode": 4
        }
      ]
    },
    {
      "primitives": [
        {
          "attributes": {
            "NORMAL": 21,
            "POSITION": 20,
            "TEXCOORD_0": 22
          },
          "indices": 23,
          "material": 0,
          "mode": 4
        }
      ]
    },
    {
      "primitives": [
        {
          "attributes": {
            "NORMAL": 25,
            "POSITION": 24,
            "TEXCOORD_0": 26
          },
          "indices": 27,
          "material": 3,
          "mode": 4
        }
      ]
    },
    {
      "primitives": [
        {
          "attributes": {
            "NORMAL": 29,
            "POSITION": 28,
            "TEXCOORD_0": 30
          },
          "indices": 31,
          "material": 1,
          "mode": 4
        }
      ]
    },
    {
      "primitives": [
        {
          "attributes": {
            "NORMAL": 33,
            "POSITION": 32,
            "TEXCOORD_0": 34
          },
          "indices": 35,
          "material": 3,
          "mode": 4
        }
      ]
    },
    {
      "primitives": [
        {
          "attributes": {
            "NORMAL": 37,
            "POSITION": 36,
            "TEXCOORD_0": 38
          },
          "indices": 39,
          "material": 2,
          "mode": 4
        }
      ]
    },
    {
      "primitives": [
        {
          "attributes": {
            "NORMAL": 41,
            "POSITION": 40,
            "TEXCOORD_0": 42
          },
          "indices": 43,
          "material": 1,
          "mode": 4
        }
      ]
    },
    {
      "primitives": [
        {
          "attributes": {
            "NORMAL": 45,
            "POSITION": 44,
            "TEXCOORD_0": 46
          },
          "indices": 47,
          "material": 0,
          "mode": 4
        }
      ]
    }
  ],
  "nodes": [
    {
      "children": [
        1
      ],
      "name": "RootNode (gltf orientation matrix)",
      "rotation": [
        -0.70710678118654746,
        -0,
        -0,
        0.70710678118654757
      ]
    },
    {
      "children": [
        2
      ],
      "name": "RootNode (model correction matrix)"
    },
    {
      "children": [
        3
      ],
      "name": "root"
    },
    {
      "children": [
        4,
        9,
        13,
        16,
        18
      ],
      "matrix": [
        1,
        0,
        0,
        0,
        0,
        2.2204460492503131e-16,
        1,
        0,
        0,
        -1,
        2.2204460492503131e-16,
        0,
        0,
        0,
        0,
        1
      ],
      "name": "GLTF_SceneRootNode"
    },
    {
      "children": [
        5,
        6,
        7,
        8
      ],
      "matrix": [
        1.7154742479324341,
        0,
        0,
        0,
        0,
        2.264171838760376,
        0,
        0,
        0,
        0,
        2.264171838760376,
        0,
        0,
        0.93239587545394897,
        0,
        1
      ],
      "name": "Plane_2"
    },
    {
      "mesh": 0,
      "name": ""
    },
    {
      "mesh": 1,
      "name": ""
    },
    {
      "mesh": 2,
      "name": ""
    },
    {
      "mesh": 3,
      "name": ""
    },
    {
      "children": [
        10,
        11,
        12
      ],
      "matrix": [
        1.710821270942688,
        0,
        0,
        0,
        0,
        2.264171838760376,
        0,
        0,
        0,
        0,
        2.264171838760376,
        0,
        0,
        1.8025145530700684,
        0,
        1
      ],
      "name": "Plane.001_3"
    },
    {
      "mesh": 4,
      "name": ""
    },
    {
      "mesh": 5,
      "name": ""
    },
    {
      "mesh": 6,
      "name": ""
    },
    {
      "children": [
        14,
        15
      ],
      "matrix": [
        3.7325963973999023,
        0,
        0,
        0,
        0,
        2.0912697315216064,
        0,
        0,
        0,
        0,
        2.0148839950561523,
        0,
        -1.6227205991744995,
        0.13362336158752441,
        0,
        1
      ],
      "name": "Plane.002_4"
    },
    {
      "mesh": 7,
      "name": ""
    },
    {
      "mesh": 8,
      "name": ""
    },
    {
      "children": [
        17
      ],
      "matrix": [
        1.7154742479324341,
        0,
        0,
        0,
        0,
        2.4205889701843262,
        0,
        0,
        0,
        0,
        2.264171838760376,
        0,
        0.13029813766479492,
        0.93239587545394897,
        0,
        1
      ],
      "name": "Plane.004_9"
    },
    {
      "mesh": 9,
      "name": ""
    },
    {
      "children": [
        19,
        20
      ],
      "matrix": [
        1.710821270942688,
        0,
        0,
        0,
        0,
        1.4704668521881104,
        0,
        0,
        0,
        0,
        2.264171838760376,
        0,
        0,
        1.8025145530700684,
        0,
        1
      ],
      "name": "Plane.003_10"
    },
    {
      "mesh": 10,
      "name": ""
    },
    {
      "mesh": 11,
      "name": ""
    }
  ],
  "scene": 0,
  "scenes": [
    {
      "name": "OSG_Scene",
      "nodes": [
        0
      ]
    }
  ]
}

